<svg
  width="100"
  height="60"
  viewBox="0 0 100 60"
  fill="none"
  xmlns="http://www.w3.org/2000/svg"
>
  <path
    d="M16.3555 44.5391C15.2539 44.5391 14.2227 44.3633 13.2617 44.0117C12.3242 43.6602 11.4922 43.168 10.7656 42.5352C10.0625 41.9023 9.5 41.1523 9.07812 40.2852C8.65625 39.4414 8.43359 38.5156 8.41016 37.5078C8.38672 36.1953 8.59766 35.0234 9.04297 33.9922C9.46484 32.9609 10.0273 32.0469 10.7305 31.25C11.457 30.4531 12.2773 29.7852 13.1914 29.2461C14.1055 28.6836 15.043 28.2266 16.0039 27.875C15.4883 27.5938 14.9961 27.2539 14.5273 26.8555C14.082 26.457 13.6836 26.0117 13.332 25.5195C12.9805 25.0273 12.6992 24.5117 12.4883 23.9727C12.2773 23.4336 12.1719 22.8945 12.1719 22.3555C12.125 20.7148 12.4531 19.2266 13.1562 17.8906C13.8828 16.5547 14.8086 15.418 15.9336 14.4805C17.0586 13.5195 18.3125 12.7812 19.6953 12.2656C21.1016 11.75 22.4727 11.4922 23.8086 11.4922C24.6992 11.4922 25.4609 11.6445 26.0938 11.9492C26.7266 12.2305 27.2422 12.5938 27.6406 13.0391C28.0391 13.4609 28.332 13.9297 28.5195 14.4453C28.7305 14.9375 28.8477 15.3945 28.8711 15.8164C28.8945 16.5898 28.7891 17.375 28.5547 18.1719C28.3438 18.9688 28.0625 19.6953 27.7109 20.3516C27.3828 20.9844 27.0078 21.5117 26.5859 21.9336C26.1641 22.332 25.7539 22.5312 25.3555 22.5312C25.0508 22.5312 24.7344 22.4844 24.4062 22.3906C24.125 22.3203 23.7969 22.2031 23.4219 22.0391C23.0469 21.875 22.6719 21.6289 22.2969 21.3008C22.9062 21.0664 23.4453 20.7383 23.9141 20.3164C24.3828 19.8711 24.7695 19.3789 25.0742 18.8398C25.4023 18.3008 25.6367 17.75 25.7773 17.1875C25.9414 16.6016 26.0234 16.0508 26.0234 15.5352C26 14.7852 25.8242 14.2109 25.4961 13.8125C25.168 13.3906 24.6406 13.1797 23.9141 13.1797C22.9297 13.1797 21.9453 13.4258 20.9609 13.918C19.9766 14.3867 19.0977 15.0547 18.3242 15.9219C17.5742 16.7656 16.9766 17.7852 16.5312 18.9805C16.1094 20.1523 15.9688 21.4297 16.1094 22.8125C16.2266 23.8672 16.543 24.7578 17.0586 25.4844C17.5977 26.2109 18.1016 26.7734 18.5703 27.1719C18.9453 27.125 19.2969 27.0898 19.625 27.0664C19.9531 27.0195 20.2578 26.9961 20.5391 26.9961C20.9375 26.9961 21.3359 27.0664 21.7344 27.207C22.1328 27.3477 22.332 27.5469 22.332 27.8047C22.332 27.9922 22.2852 28.2031 22.1914 28.4375C22.1211 28.6719 21.9922 28.8945 21.8047 29.1055C21.6172 29.3164 21.3945 29.4922 21.1367 29.6328C20.8789 29.7734 20.5742 29.8438 20.2227 29.8438C19.9414 29.8438 19.6016 29.7734 19.2031 29.6328C18.8047 29.4922 18.4062 29.3164 18.0078 29.1055C17.1172 29.293 16.3086 29.6328 15.582 30.125C14.8555 30.5938 14.2344 31.1562 13.7188 31.8125C13.2266 32.4688 12.8398 33.1836 12.5586 33.957C12.2773 34.7305 12.1484 35.4805 12.1719 36.207C12.1953 36.8867 12.3008 37.5664 12.4883 38.2461C12.6758 38.9492 12.9688 39.5703 13.3672 40.1094C13.7656 40.6484 14.2812 41.082 14.9141 41.4102C15.5703 41.7617 16.3555 41.9375 17.2695 41.9375C17.9492 41.9375 18.5938 41.7852 19.2031 41.4805C19.8359 41.1992 20.4219 40.8359 20.9609 40.3906C21.5 39.9453 21.9922 39.4531 22.4375 38.9141C22.8828 38.375 23.2695 37.8477 23.5977 37.332C23.9258 36.8164 24.1953 36.3477 24.4062 35.9258C24.6406 35.5039 24.8047 35.1992 24.8984 35.0117C24.9688 34.8711 25.0625 34.7656 25.1797 34.6953C25.3203 34.625 25.4492 34.6133 25.5664 34.6602C25.707 34.6836 25.8125 34.7656 25.8828 34.9062C25.9531 35.0469 25.9531 35.2578 25.8828 35.5391C25.6953 36.3828 25.3438 37.3203 24.8281 38.3516C24.3125 39.4062 23.6445 40.3906 22.8242 41.3047C22.0273 42.2188 21.0781 42.9805 19.9766 43.5898C18.8984 44.2227 17.6914 44.5391 16.3555 44.5391ZM29.0469 34.3438C28.7891 34.0859 28.6016 33.8398 28.4844 33.6055C28.3906 33.3477 28.3203 33.1016 28.2734 32.8672C28.2266 32.6094 28.2266 32.3516 28.2734 32.0938C28.3672 31.7656 28.5078 31.4609 28.6953 31.1797C28.8594 30.9219 29.082 30.6641 29.3633 30.4062C29.6445 30.125 30.0195 29.8672 30.4883 29.6328C30.793 28.8828 31.0625 28.0977 31.2969 27.2773C31.5547 26.4336 31.7773 25.6719 31.9648 24.9922C32.1758 24.1953 32.3633 23.3984 32.5273 22.6016C33.1133 20.6094 33.418 18.9922 33.4414 17.75C33.4648 16.4844 33.4414 15.6523 33.3711 15.2539C33.3477 15.0898 33.3242 14.9258 33.3008 14.7617C33.2539 14.6211 33.207 14.4687 33.1602 14.3047C33.1367 14.1172 33.1016 13.9414 33.0547 13.7773C33.3125 13.6367 33.5352 13.5195 33.7227 13.4258C33.9336 13.332 34.1094 13.2617 34.25 13.2148C34.4141 13.1445 34.5664 13.0977 34.707 13.0742C35.2461 12.957 35.75 12.8984 36.2188 12.8984C36.7109 12.875 36.9805 12.957 37.0273 13.1445C37.0508 13.2617 37.0742 13.4727 37.0977 13.7773C37.1445 14.082 37.168 14.457 37.168 14.9023C37.168 15.3477 37.1328 15.8516 37.0625 16.4141C36.9922 16.9531 36.8633 17.5273 36.6758 18.1367C36.5117 18.6758 36.2891 19.4258 36.0078 20.3867C35.75 21.207 35.4102 22.3086 34.9883 23.6914C34.5664 25.0508 34.0156 26.7969 33.3359 28.9297C34.0391 28.6953 34.8125 28.4727 35.6562 28.2617C36.5 28.0508 37.3555 27.875 38.2227 27.7344C39.1133 27.5938 39.9922 27.4883 40.8594 27.418C41.75 27.3477 42.5703 27.3359 43.3203 27.3828C43.4609 27.3828 43.5547 27.4531 43.6016 27.5938C43.6719 27.7109 43.6719 27.8398 43.6016 27.9805C43.5547 28.1211 43.4258 28.2617 43.2148 28.4023C43.0273 28.5195 42.7461 28.5898 42.3711 28.6133C41.9023 28.6602 41.3867 28.7188 40.8242 28.7891C40.2617 28.8359 39.6758 28.918 39.0664 29.0352C38.4805 29.1289 37.8945 29.2578 37.3086 29.4219C36.7227 29.5625 36.1719 29.7383 35.6562 29.9492C35.2578 30.0898 34.8594 30.2305 34.4609 30.3711C34.1328 30.4883 33.7812 30.6289 33.4062 30.793C33.0547 30.9336 32.7617 31.0625 32.5273 31.1797L31.7188 33.7461C33.0781 34.707 34.1211 35.6914 34.8477 36.6992C35.5977 37.707 36.1367 38.6328 36.4648 39.4766C36.8633 40.4609 37.0859 41.4219 37.1328 42.3594C37.1328 43.3906 36.9805 44.4219 36.6758 45.4531C36.3711 46.5078 35.9609 47.5039 35.4453 48.4414C34.9531 49.4023 34.3672 50.293 33.6875 51.1133C33.0312 51.9336 32.3281 52.6367 31.5781 53.2227C30.8516 53.8086 30.1016 54.2539 29.3281 54.5586C28.5781 54.8633 27.8633 54.9805 27.1836 54.9102C26.6914 54.8633 26.2812 54.6992 25.9531 54.418C25.625 54.1602 25.3789 53.8203 25.2148 53.3984C25.0508 53 24.957 52.543 24.9336 52.0273C24.9102 51.5352 24.957 51.043 25.0742 50.5508C25.168 50.0586 25.3672 49.1445 25.6719 47.8086C25.9297 46.6836 26.3281 45.043 26.8672 42.8867C27.4062 40.7539 28.1328 37.9062 29.0469 34.3438ZM31.1211 35.9961C30.793 37.168 30.5 38.2461 30.2422 39.2305C30.0078 40.2148 29.8086 41.082 29.6445 41.832C29.4336 42.6992 29.2695 43.4844 29.1523 44.1875C28.9414 45.0781 28.7188 45.957 28.4844 46.8242C28.2734 47.6914 28.1094 48.4648 27.9922 49.1445C27.8516 49.8477 27.793 50.4102 27.8164 50.832C27.8398 51.2539 27.9922 51.4648 28.2734 51.4648C28.9531 51.5117 29.6562 51.2422 30.3828 50.6562C31.1328 50.0938 31.8125 49.3672 32.4219 48.4766C33.0312 47.6094 33.5352 46.6602 33.9336 45.6289C34.332 44.6211 34.5312 43.6836 34.5312 42.8164C34.5312 41.8555 34.3789 40.9062 34.0742 39.9688C33.8633 39.4766 33.6172 38.9961 33.3359 38.5273C33.0781 38.1289 32.7617 37.707 32.3867 37.2617C32.0352 36.793 31.6133 36.3711 31.1211 35.9961ZM40.7539 34.3438C40.4961 34.0859 40.3086 33.8398 40.1914 33.6055C40.0977 33.3477 40.0273 33.1016 39.9805 32.8672C39.9336 32.6094 39.9336 32.3516 39.9805 32.0938C40.0742 31.7656 40.2148 31.4609 40.4023 31.1797C40.5664 30.9219 40.7891 30.6641 41.0703 30.4062C41.3516 30.125 41.7266 29.8672 42.1953 29.6328C42.5 28.8828 42.7695 28.0977 43.0039 27.2773C43.2617 26.4336 43.4844 25.6719 43.6719 24.9922C43.8828 24.1953 44.0703 23.3984 44.2344 22.6016C44.8203 20.6094 45.125 18.9922 45.1484 17.75C45.1719 16.4844 45.1484 15.6523 45.0781 15.2539C45.0547 15.0898 45.0312 14.9258 45.0078 14.7617C44.9609 14.6211 44.9141 14.4687 44.8672 14.3047C44.8438 14.1172 44.8086 13.9414 44.7617 13.7773C45.0195 13.6367 45.2422 13.5195 45.4297 13.4258C45.6406 13.332 45.8164 13.2617 45.957 13.2148C46.1211 13.1445 46.2734 13.0977 46.4141 13.0742C46.9531 12.957 47.457 12.8984 47.9258 12.8984C48.418 12.875 48.6875 12.957 48.7344 13.1445C48.7578 13.2617 48.7812 13.4727 48.8047 13.7773C48.8516 14.082 48.875 14.457 48.875 14.9023C48.875 15.3477 48.8398 15.8516 48.7695 16.4141C48.6992 16.9531 48.5703 17.5273 48.3828 18.1367C48.2188 18.6758 47.9961 19.4258 47.7148 20.3867C47.457 21.207 47.1172 22.3086 46.6953 23.6914C46.2734 25.0508 45.7227 26.7969 45.043 28.9297C45.7461 28.6953 46.5195 28.4727 47.3633 28.2617C48.207 28.0508 49.0625 27.875 49.9297 27.7344C50.8203 27.5938 51.6992 27.4883 52.5664 27.418C53.457 27.3477 54.2773 27.3359 55.0273 27.3828C55.168 27.3828 55.2617 27.4531 55.3086 27.5938C55.3789 27.7109 55.3789 27.8398 55.3086 27.9805C55.2617 28.1211 55.1328 28.2617 54.9219 28.4023C54.7344 28.5195 54.4531 28.5898 54.0781 28.6133C53.6094 28.6602 53.0938 28.7188 52.5312 28.7891C51.9688 28.8359 51.3828 28.918 50.7734 29.0352C50.1875 29.1289 49.6016 29.2578 49.0156 29.4219C48.4297 29.5625 47.8789 29.7383 47.3633 29.9492C46.9648 30.0898 46.5664 30.2305 46.168 30.3711C45.8398 30.4883 45.4883 30.6289 45.1133 30.793C44.7617 30.9336 44.4688 31.0625 44.2344 31.1797L43.4258 33.7461C44.7852 34.707 45.8281 35.6914 46.5547 36.6992C47.3047 37.707 47.8438 38.6328 48.1719 39.4766C48.5703 40.4609 48.793 41.4219 48.8398 42.3594C48.8398 43.3906 48.6875 44.4219 48.3828 45.4531C48.0781 46.5078 47.668 47.5039 47.1523 48.4414C46.6602 49.4023 46.0742 50.293 45.3945 51.1133C44.7383 51.9336 44.0352 52.6367 43.2852 53.2227C42.5586 53.8086 41.8086 54.2539 41.0352 54.5586C40.2852 54.8633 39.5703 54.9805 38.8906 54.9102C38.3984 54.8633 37.9883 54.6992 37.6602 54.418C37.332 54.1602 37.0859 53.8203 36.9219 53.3984C36.7578 53 36.6641 52.543 36.6406 52.0273C36.6172 51.5352 36.6641 51.043 36.7812 50.5508C36.875 50.0586 37.0742 49.1445 37.3789 47.8086C37.6367 46.6836 38.0352 45.043 38.5742 42.8867C39.1133 40.7539 39.8398 37.9062 40.7539 34.3438ZM42.8281 35.9961C42.5 37.168 42.207 38.2461 41.9492 39.2305C41.7148 40.2148 41.5156 41.082 41.3516 41.832C41.1406 42.6992 40.9766 43.4844 40.8594 44.1875C40.6484 45.0781 40.4258 45.957 40.1914 46.8242C39.9805 47.6914 39.8164 48.4648 39.6992 49.1445C39.5586 49.8477 39.5 50.4102 39.5234 50.832C39.5469 51.2539 39.6992 51.4648 39.9805 51.4648C40.6602 51.5117 41.3633 51.2422 42.0898 50.6562C42.8398 50.0938 43.5195 49.3672 44.1289 48.4766C44.7383 47.6094 45.2422 46.6602 45.6406 45.6289C46.0391 44.6211 46.2383 43.6836 46.2383 42.8164C46.2383 41.8555 46.0859 40.9062 45.7812 39.9688C45.5703 39.4766 45.3242 38.9961 45.043 38.5273C44.7852 38.1289 44.4688 37.707 44.0938 37.2617C43.7422 36.793 43.3203 36.3711 42.8281 35.9961ZM67.1211 33.3594C66.1367 34.6016 65.2578 35.5859 64.4844 36.3125C63.7344 37.0156 63.0664 37.543 62.4805 37.8945C61.8945 38.2461 61.3789 38.4688 60.9336 38.5625C60.4883 38.6562 60.0898 38.7031 59.7383 38.7031C59.293 38.7031 58.918 38.5977 58.6133 38.3867C58.3086 38.1758 58.0508 37.918 57.8398 37.6133C57.6289 37.3086 57.4648 36.9922 57.3477 36.6641C57.2305 36.3359 57.1367 36.0547 57.0664 35.8203C56.9727 35.5625 56.8672 35.2695 56.75 34.9414C56.6562 34.6133 56.5508 34.25 56.4336 33.8516C55.9648 34.3438 55.4727 34.8711 54.957 35.4336C54.5117 35.9023 54.0078 36.4414 53.4453 37.0508C52.8828 37.6367 52.3086 38.2344 51.7227 38.8438C51.5117 38.8906 51.3242 38.8906 51.1602 38.8438C50.9961 38.7969 50.8555 38.75 50.7383 38.7031C50.5977 38.6328 50.4805 38.5508 50.3867 38.457C50.3164 38.3867 50.2461 38.3047 50.1758 38.2109C50.1289 38.1406 50.082 38.0586 50.0352 37.9648C49.9648 37.8477 49.9414 37.7305 49.9648 37.6133C50.6445 36.8398 51.3125 36.0781 51.9688 35.3281C52.6484 34.5547 53.2578 33.8633 53.7969 33.2539C54.4062 32.5508 54.9922 31.8711 55.5547 31.2148C55.2266 30.3242 54.9336 29.4922 54.6758 28.7188C54.418 27.9453 54.2305 27.3945 54.1133 27.0664C53.8789 26.3867 53.668 25.8242 53.4805 25.3789C53.3164 24.9336 53.0234 24.6172 52.6016 24.4297C52.8828 24.1719 53.1523 23.9727 53.4102 23.832C53.6914 23.668 53.9375 23.5508 54.1484 23.4805C54.4062 23.3867 54.6289 23.3398 54.8164 23.3398C55.3555 23.3398 55.8242 23.8203 56.2227 24.7812C56.6445 25.7188 57.0664 27.0195 57.4883 28.6836C57.4883 28.7539 57.5117 28.8359 57.5586 28.9297C58.0508 28.3438 58.5195 27.793 58.9648 27.2773C59.4336 26.7617 59.832 26.3047 60.1602 25.9062C60.5117 25.5078 60.793 25.1914 61.0039 24.957C61.2148 24.7227 61.3438 24.582 61.3906 24.5352C61.8594 23.9961 62.2812 23.6914 62.6562 23.6211C63.0312 23.5508 63.3711 23.6328 63.6758 23.8672C63.8164 23.9609 63.9688 24.0547 64.1328 24.1484C64.4375 24.3359 64.8008 24.5117 65.2227 24.6758C64.8242 25.0508 64.3789 25.4844 63.8867 25.9766C63.418 26.4453 62.9727 26.9023 62.5508 27.3477C62.0586 27.8633 61.5664 28.3789 61.0742 28.8945C60.7227 29.2461 60.3008 29.6797 59.8086 30.1953C59.3398 30.7109 58.8359 31.2734 58.2969 31.8828C58.4609 32.4688 58.6367 33.0195 58.8242 33.5352C59.0117 34.0508 59.1992 34.5078 59.3867 34.9062C59.5977 35.3047 59.8086 35.6211 60.0195 35.8555C60.2305 36.0898 60.4531 36.207 60.6875 36.207C61.0625 36.207 61.4844 36.1133 61.9531 35.9258C62.4219 35.7148 62.9141 35.4336 63.4297 35.082C63.9453 34.7305 64.4609 34.3203 64.9766 33.8516C65.5156 33.3828 66.043 32.8906 66.5586 32.375C66.7461 32.1875 66.9219 32.082 67.0859 32.0586C67.2734 32.0352 67.4023 32.0703 67.4727 32.1641C67.543 32.2578 67.5547 32.4102 67.5078 32.6211C67.4844 32.832 67.3555 33.0781 67.1211 33.3594ZM79.1094 29.1055C79.2031 28.9648 79.3203 28.8828 79.4609 28.8594C79.625 28.8125 79.7539 28.8242 79.8477 28.8945C79.9414 28.9648 79.9883 29.082 79.9883 29.2461C80.0117 29.4102 79.9531 29.6328 79.8125 29.9141C79.3438 30.8047 78.7227 31.7656 77.9492 32.7969C77.1992 33.8281 76.4023 34.8008 75.5586 35.7148C74.7148 36.6055 73.8945 37.3438 73.0977 37.9297C72.3008 38.5156 71.6328 38.8086 71.0938 38.8086C70.3203 38.8086 69.6758 38.6562 69.1602 38.3516C68.6445 38.0469 68.2344 37.6719 67.9297 37.2266C67.6484 36.7812 67.4492 36.3008 67.332 35.7852C67.2148 35.2461 67.1797 34.7539 67.2266 34.3086C67.25 33.9336 67.332 33.2656 67.4727 32.3047C67.6133 31.3203 67.8008 30.1953 68.0352 28.9297C68.2695 27.6406 68.5273 26.2695 68.8086 24.8164C69.1133 23.3398 69.4297 21.9219 69.7578 20.5625C69.3594 20.6094 68.9609 20.6562 68.5625 20.7031C68.1641 20.75 67.8008 20.7734 67.4727 20.7734C66.7227 20.7734 66.0195 20.6914 65.3633 20.5273C64.6836 20.3398 64.1797 20.1641 63.8516 20C63.6641 19.9062 63.582 19.7773 63.6055 19.6133C63.6289 19.4258 63.6992 19.25 63.8164 19.0859C63.9336 18.8984 64.0859 18.7461 64.2734 18.6289C64.4375 18.4883 64.5898 18.418 64.7305 18.418C65.1758 18.4648 65.6562 18.5117 66.1719 18.5586C66.6875 18.582 67.25 18.582 67.8594 18.5586C68.3047 18.5352 68.7266 18.5 69.125 18.4531C69.5469 18.4062 69.957 18.3477 70.3555 18.2773C70.6602 17.1523 70.9531 16.1797 71.2344 15.3594C71.5391 14.5156 71.8086 13.9297 72.043 13.6016C72.1133 13.4844 72.2656 13.3906 72.5 13.3203C72.7578 13.2266 73.0273 13.168 73.3086 13.1445C73.5898 13.0977 73.8594 13.0977 74.1172 13.1445C74.375 13.168 74.5625 13.25 74.6797 13.3906C74.7969 13.5781 74.8438 14.0586 74.8203 14.832C74.7969 15.6055 74.668 16.5898 74.4336 17.7852C75.418 17.7852 76.2852 17.8438 77.0352 17.9609C77.8086 18.0547 78.4648 18.1719 79.0039 18.3125C79.543 18.4297 79.9766 18.5586 80.3047 18.6992C80.6328 18.8164 80.8789 18.8984 81.043 18.9453C81.207 18.9922 81.2891 19.1094 81.2891 19.2969C81.3125 19.4844 81.2773 19.6836 81.1836 19.8945C81.1133 20.082 80.9844 20.2461 80.7969 20.3867C80.6094 20.5273 80.3984 20.5742 80.1641 20.5273C79.9297 20.5039 79.6602 20.457 79.3555 20.3867C79.0742 20.3164 78.7227 20.2578 78.3008 20.2109C77.9023 20.1641 77.4219 20.1172 76.8594 20.0703C76.2969 20.0234 75.6406 20 74.8906 20C74.75 20 74.5859 20.0117 74.3984 20.0352C74.2344 20.0352 74.0586 20.0352 73.8711 20.0352C73.7773 20.4102 73.6836 20.7852 73.5898 21.1602C73.5195 21.5117 73.4141 21.8867 73.2734 22.2852C72.9688 23.2227 72.6172 24.2422 72.2188 25.3438C71.8672 26.3047 71.4453 27.4062 70.9531 28.6484C70.4609 29.8906 69.9102 31.2148 69.3008 32.6211C69.1602 33.6289 69.1719 34.4023 69.3359 34.9414C69.5234 35.457 69.7461 35.832 70.0039 36.0664C70.3086 36.3242 70.6836 36.4648 71.1289 36.4883C71.4805 36.5352 71.9023 36.418 72.3945 36.1367C72.9102 35.832 73.4375 35.4336 73.9766 34.9414C74.5156 34.4492 75.0547 33.9102 75.5938 33.3242C76.1562 32.7383 76.6719 32.1641 77.1406 31.6016C77.6094 31.0391 78.0195 30.5352 78.3711 30.0898C78.7227 29.6211 78.9688 29.293 79.1094 29.1055ZM81.957 36.8047C82.0977 36.8984 82.2734 36.9453 82.4844 36.9453C82.7188 36.9453 82.9414 36.8984 83.1523 36.8047C83.3867 36.7109 83.5977 36.582 83.7852 36.418C83.9961 36.2539 84.1484 36.043 84.2422 35.7852C84.3359 35.5273 84.3359 35.1641 84.2422 34.6953C84.1484 34.2031 83.9961 33.6875 83.7852 33.1484C83.5977 32.5859 83.3867 32.0234 83.1523 31.4609C82.918 30.8984 82.7188 30.3828 82.5547 29.9141C82.4141 29.5625 82.2969 29.2344 82.2031 28.9297C82.1094 28.6719 82.0156 28.4258 81.9219 28.1914C81.8516 27.9336 81.793 27.7578 81.7461 27.6641C81.6289 27.8516 81.418 28.1562 81.1133 28.5781C80.832 29 80.5156 29.4453 80.1641 29.9141C79.8359 30.3594 79.5195 30.7812 79.2148 31.1797C78.9102 31.5547 78.6992 31.8125 78.582 31.9531C78.3945 32.1641 78.207 32.293 78.0195 32.3398C77.8555 32.3633 77.7148 32.3281 77.5977 32.2344C77.4805 32.1172 77.4102 31.9648 77.3867 31.7773C77.3867 31.5664 77.4805 31.3203 77.668 31.0391C77.8086 30.8516 78.0195 30.5586 78.3008 30.1602C78.582 29.7383 78.8633 29.3164 79.1445 28.8945C79.4258 28.4492 79.6836 28.0625 79.918 27.7344C80.1523 27.3828 80.2812 27.1719 80.3047 27.1016C80.3516 26.9141 80.2812 26.668 80.0938 26.3633C79.9297 26.0586 79.9062 25.707 80.0234 25.3086C80.1172 24.9805 80.3281 24.6055 80.6562 24.1836C80.9844 23.7383 81.3711 23.3398 81.8164 22.9883C82.2617 22.6367 82.7188 22.3789 83.1875 22.2148C83.6562 22.0273 84.0781 22.0273 84.4531 22.2148C84.7578 22.4023 85.0039 22.6133 85.1914 22.8477C85.3789 23.0586 85.4492 23.2812 85.4023 23.5156C85.3555 23.6328 85.2852 23.7852 85.1914 23.9727C85.0977 24.1602 84.957 24.3945 84.7695 24.6758C84.582 24.9336 84.3125 25.2734 83.9609 25.6953C84.0312 26.2344 84.125 26.7266 84.2422 27.1719C84.3828 27.6172 84.5117 28.0039 84.6289 28.332C84.7695 28.7305 84.9219 29.0938 85.0859 29.4219C85.2969 29.8438 85.5195 30.2773 85.7539 30.7227C85.9883 31.168 86.1992 31.6133 86.3867 32.0586C86.5742 32.4805 86.7266 32.8789 86.8438 33.2539C86.9609 33.6289 86.9961 33.9453 86.9492 34.2031C86.8789 34.6016 86.668 35.082 86.3164 35.6445C85.9883 36.207 85.5664 36.7578 85.0508 37.2969C84.5586 37.8125 83.9844 38.2578 83.3281 38.6328C82.6953 39.0078 82.0273 39.1953 81.3242 39.1953C80.832 39.1953 80.3516 39.043 79.8828 38.7383C79.4375 38.4336 79.0508 38.082 78.7227 37.6836C78.418 37.2617 78.1836 36.8516 78.0195 36.4531C77.8789 36.0547 77.8672 35.75 77.9844 35.5391C78.125 35.2578 78.2539 35.0352 78.3711 34.8711C78.4883 34.707 78.6641 34.5195 78.8984 34.3086C78.9922 34.2383 79.1094 34.1562 79.25 34.0625C79.3672 33.9922 79.5312 33.9219 79.7422 33.8516C79.9531 33.7812 80.1992 33.6992 80.4805 33.6055C80.7148 34.332 80.9258 34.9062 81.1133 35.3281C81.3008 35.7266 81.4531 36.043 81.5703 36.2773C81.7109 36.5352 81.8398 36.7109 81.957 36.8047Z"
    fill="#555555"
  />
</svg>
